<mxfile host="app.diagrams.net" agent="Mozilla/5.0 (Windows NT 10.0; Win64; x64) AppleWebKit/537.36 (KHTML, like Gecko) Chrome/136.0.0.0 Safari/537.36 Edg/136.0.0.0" version="26.2.9">
  <diagram id="C5RBs43oDa-KdzZeNtuy" name="Page-1">
    <mxGraphModel dx="1420" dy="794" grid="1" gridSize="10" guides="1" tooltips="1" connect="1" arrows="1" fold="1" page="1" pageScale="1" pageWidth="827" pageHeight="1169" math="0" shadow="0">
      <root>
        <mxCell id="WIyWlLk6GJQsqaUBKTNV-0" />
        <mxCell id="WIyWlLk6GJQsqaUBKTNV-1" parent="WIyWlLk6GJQsqaUBKTNV-0" />
        <mxCell id="DEU6iOKmGE-pn7RC5euh-9" style="edgeStyle=orthogonalEdgeStyle;rounded=0;orthogonalLoop=1;jettySize=auto;html=1;exitX=1;exitY=0.5;exitDx=0;exitDy=0;entryX=0;entryY=0.5;entryDx=0;entryDy=0;" edge="1" parent="WIyWlLk6GJQsqaUBKTNV-1" source="DEU6iOKmGE-pn7RC5euh-0" target="DEU6iOKmGE-pn7RC5euh-2">
          <mxGeometry relative="1" as="geometry" />
        </mxCell>
        <mxCell id="DEU6iOKmGE-pn7RC5euh-0" value="Cadastra" style="rhombus;whiteSpace=wrap;html=1;" vertex="1" parent="WIyWlLk6GJQsqaUBKTNV-1">
          <mxGeometry x="440" y="90" width="80" height="80" as="geometry" />
        </mxCell>
        <mxCell id="DEU6iOKmGE-pn7RC5euh-8" style="edgeStyle=orthogonalEdgeStyle;rounded=0;orthogonalLoop=1;jettySize=auto;html=1;exitX=1;exitY=0.5;exitDx=0;exitDy=0;entryX=0;entryY=0.5;entryDx=0;entryDy=0;" edge="1" parent="WIyWlLk6GJQsqaUBKTNV-1" source="DEU6iOKmGE-pn7RC5euh-1" target="DEU6iOKmGE-pn7RC5euh-0">
          <mxGeometry relative="1" as="geometry" />
        </mxCell>
        <mxCell id="DEU6iOKmGE-pn7RC5euh-1" value="Usuario" style="rounded=0;whiteSpace=wrap;html=1;" vertex="1" parent="WIyWlLk6GJQsqaUBKTNV-1">
          <mxGeometry x="220" y="100" width="120" height="60" as="geometry" />
        </mxCell>
        <mxCell id="DEU6iOKmGE-pn7RC5euh-10" style="edgeStyle=orthogonalEdgeStyle;rounded=0;orthogonalLoop=1;jettySize=auto;html=1;exitX=0.5;exitY=1;exitDx=0;exitDy=0;entryX=0.5;entryY=0;entryDx=0;entryDy=0;" edge="1" parent="WIyWlLk6GJQsqaUBKTNV-1" source="DEU6iOKmGE-pn7RC5euh-2" target="DEU6iOKmGE-pn7RC5euh-3">
          <mxGeometry relative="1" as="geometry" />
        </mxCell>
        <mxCell id="DEU6iOKmGE-pn7RC5euh-2" value="Cliente" style="rounded=0;whiteSpace=wrap;html=1;" vertex="1" parent="WIyWlLk6GJQsqaUBKTNV-1">
          <mxGeometry x="610" y="100" width="120" height="60" as="geometry" />
        </mxCell>
        <mxCell id="DEU6iOKmGE-pn7RC5euh-11" style="edgeStyle=orthogonalEdgeStyle;rounded=0;orthogonalLoop=1;jettySize=auto;html=1;exitX=0.5;exitY=1;exitDx=0;exitDy=0;entryX=0.5;entryY=0;entryDx=0;entryDy=0;" edge="1" parent="WIyWlLk6GJQsqaUBKTNV-1" source="DEU6iOKmGE-pn7RC5euh-3" target="DEU6iOKmGE-pn7RC5euh-4">
          <mxGeometry relative="1" as="geometry" />
        </mxCell>
        <mxCell id="DEU6iOKmGE-pn7RC5euh-3" value="Efetua" style="rhombus;whiteSpace=wrap;html=1;" vertex="1" parent="WIyWlLk6GJQsqaUBKTNV-1">
          <mxGeometry x="630" y="200" width="80" height="80" as="geometry" />
        </mxCell>
        <mxCell id="DEU6iOKmGE-pn7RC5euh-12" style="edgeStyle=orthogonalEdgeStyle;rounded=0;orthogonalLoop=1;jettySize=auto;html=1;exitX=0;exitY=0.5;exitDx=0;exitDy=0;entryX=1;entryY=0.5;entryDx=0;entryDy=0;" edge="1" parent="WIyWlLk6GJQsqaUBKTNV-1" source="DEU6iOKmGE-pn7RC5euh-4" target="DEU6iOKmGE-pn7RC5euh-5">
          <mxGeometry relative="1" as="geometry" />
        </mxCell>
        <mxCell id="DEU6iOKmGE-pn7RC5euh-4" value="Pedido" style="rounded=0;whiteSpace=wrap;html=1;" vertex="1" parent="WIyWlLk6GJQsqaUBKTNV-1">
          <mxGeometry x="610" y="320" width="120" height="60" as="geometry" />
        </mxCell>
        <mxCell id="DEU6iOKmGE-pn7RC5euh-5" value="Contem" style="rhombus;whiteSpace=wrap;html=1;" vertex="1" parent="WIyWlLk6GJQsqaUBKTNV-1">
          <mxGeometry x="440" y="310" width="80" height="80" as="geometry" />
        </mxCell>
        <mxCell id="DEU6iOKmGE-pn7RC5euh-13" style="edgeStyle=orthogonalEdgeStyle;rounded=0;orthogonalLoop=1;jettySize=auto;html=1;exitX=1;exitY=0.5;exitDx=0;exitDy=0;entryX=0;entryY=0.5;entryDx=0;entryDy=0;" edge="1" parent="WIyWlLk6GJQsqaUBKTNV-1" source="DEU6iOKmGE-pn7RC5euh-6" target="DEU6iOKmGE-pn7RC5euh-5">
          <mxGeometry relative="1" as="geometry" />
        </mxCell>
        <mxCell id="DEU6iOKmGE-pn7RC5euh-6" value="Produto" style="rounded=0;whiteSpace=wrap;html=1;" vertex="1" parent="WIyWlLk6GJQsqaUBKTNV-1">
          <mxGeometry x="220" y="320" width="120" height="60" as="geometry" />
        </mxCell>
        <mxCell id="DEU6iOKmGE-pn7RC5euh-14" value="(1, 1)" style="text;html=1;align=center;verticalAlign=middle;resizable=0;points=[];autosize=1;strokeColor=none;fillColor=none;" vertex="1" parent="WIyWlLk6GJQsqaUBKTNV-1">
          <mxGeometry x="395" y="98" width="50" height="30" as="geometry" />
        </mxCell>
        <mxCell id="DEU6iOKmGE-pn7RC5euh-15" value="(1, N)" style="text;html=1;align=center;verticalAlign=middle;resizable=0;points=[];autosize=1;strokeColor=none;fillColor=none;" vertex="1" parent="WIyWlLk6GJQsqaUBKTNV-1">
          <mxGeometry x="565" y="98" width="50" height="30" as="geometry" />
        </mxCell>
        <mxCell id="DEU6iOKmGE-pn7RC5euh-16" value="(1, 1)" style="text;html=1;align=center;verticalAlign=middle;resizable=0;points=[];autosize=1;strokeColor=none;fillColor=none;" vertex="1" parent="WIyWlLk6GJQsqaUBKTNV-1">
          <mxGeometry x="665" y="168" width="50" height="30" as="geometry" />
        </mxCell>
        <mxCell id="DEU6iOKmGE-pn7RC5euh-17" value="(0, N)" style="text;html=1;align=center;verticalAlign=middle;resizable=0;points=[];autosize=1;strokeColor=none;fillColor=none;" vertex="1" parent="WIyWlLk6GJQsqaUBKTNV-1">
          <mxGeometry x="665" y="288" width="50" height="30" as="geometry" />
        </mxCell>
        <mxCell id="DEU6iOKmGE-pn7RC5euh-19" value="(1, N)" style="text;html=1;align=center;verticalAlign=middle;resizable=0;points=[];autosize=1;strokeColor=none;fillColor=none;" vertex="1" parent="WIyWlLk6GJQsqaUBKTNV-1">
          <mxGeometry x="565" y="318" width="50" height="30" as="geometry" />
        </mxCell>
        <mxCell id="DEU6iOKmGE-pn7RC5euh-20" value="(1, N)" style="text;html=1;align=center;verticalAlign=middle;resizable=0;points=[];autosize=1;strokeColor=none;fillColor=none;" vertex="1" parent="WIyWlLk6GJQsqaUBKTNV-1">
          <mxGeometry x="375" y="318" width="50" height="30" as="geometry" />
        </mxCell>
        <mxCell id="DEU6iOKmGE-pn7RC5euh-30" style="edgeStyle=orthogonalEdgeStyle;rounded=0;orthogonalLoop=1;jettySize=auto;html=1;exitX=1;exitY=0.5;exitDx=0;exitDy=0;entryX=0;entryY=0.5;entryDx=0;entryDy=0;" edge="1" parent="WIyWlLk6GJQsqaUBKTNV-1" source="DEU6iOKmGE-pn7RC5euh-21" target="DEU6iOKmGE-pn7RC5euh-22">
          <mxGeometry relative="1" as="geometry" />
        </mxCell>
        <mxCell id="DEU6iOKmGE-pn7RC5euh-21" value="UsuÃ¡rio" style="rounded=0;whiteSpace=wrap;html=1;" vertex="1" parent="WIyWlLk6GJQsqaUBKTNV-1">
          <mxGeometry x="130" y="440" width="120" height="60" as="geometry" />
        </mxCell>
        <mxCell id="DEU6iOKmGE-pn7RC5euh-29" style="edgeStyle=orthogonalEdgeStyle;rounded=0;orthogonalLoop=1;jettySize=auto;html=1;exitX=1;exitY=0.5;exitDx=0;exitDy=0;entryX=0;entryY=0.5;entryDx=0;entryDy=0;" edge="1" parent="WIyWlLk6GJQsqaUBKTNV-1" source="DEU6iOKmGE-pn7RC5euh-22" target="DEU6iOKmGE-pn7RC5euh-23">
          <mxGeometry relative="1" as="geometry" />
        </mxCell>
        <mxCell id="DEU6iOKmGE-pn7RC5euh-22" value="Cliente" style="rounded=0;whiteSpace=wrap;html=1;" vertex="1" parent="WIyWlLk6GJQsqaUBKTNV-1">
          <mxGeometry x="290" y="440" width="120" height="60" as="geometry" />
        </mxCell>
        <mxCell id="DEU6iOKmGE-pn7RC5euh-28" style="edgeStyle=orthogonalEdgeStyle;rounded=0;orthogonalLoop=1;jettySize=auto;html=1;exitX=1;exitY=0.5;exitDx=0;exitDy=0;entryX=0;entryY=0.5;entryDx=0;entryDy=0;" edge="1" parent="WIyWlLk6GJQsqaUBKTNV-1" source="DEU6iOKmGE-pn7RC5euh-23" target="DEU6iOKmGE-pn7RC5euh-24">
          <mxGeometry relative="1" as="geometry" />
        </mxCell>
        <mxCell id="DEU6iOKmGE-pn7RC5euh-23" value="Pedido" style="rounded=0;whiteSpace=wrap;html=1;" vertex="1" parent="WIyWlLk6GJQsqaUBKTNV-1">
          <mxGeometry x="450" y="440" width="120" height="60" as="geometry" />
        </mxCell>
        <mxCell id="DEU6iOKmGE-pn7RC5euh-24" value="ItemPedido" style="rounded=0;whiteSpace=wrap;html=1;" vertex="1" parent="WIyWlLk6GJQsqaUBKTNV-1">
          <mxGeometry x="610" y="440" width="120" height="60" as="geometry" />
        </mxCell>
        <mxCell id="DEU6iOKmGE-pn7RC5euh-27" style="edgeStyle=orthogonalEdgeStyle;rounded=0;orthogonalLoop=1;jettySize=auto;html=1;exitX=0.5;exitY=0;exitDx=0;exitDy=0;entryX=0.5;entryY=1;entryDx=0;entryDy=0;" edge="1" parent="WIyWlLk6GJQsqaUBKTNV-1" source="DEU6iOKmGE-pn7RC5euh-25" target="DEU6iOKmGE-pn7RC5euh-24">
          <mxGeometry relative="1" as="geometry" />
        </mxCell>
        <mxCell id="DEU6iOKmGE-pn7RC5euh-25" value="Produto" style="rounded=0;whiteSpace=wrap;html=1;" vertex="1" parent="WIyWlLk6GJQsqaUBKTNV-1">
          <mxGeometry x="610" y="540" width="120" height="60" as="geometry" />
        </mxCell>
      </root>
    </mxGraphModel>
  </diagram>
</mxfile>
